<svg xmlns="http://www.w3.org/2000/svg" width="47.675" height="41.792" viewBox="0 0 47.675 41.792">
  <path id="check-icon" d="M48.29,13.98,44.381,44.617H31.18l-3.892-30.79H43.4l3.185-11,1.806.544L45.339,13.957l2.951.023ZM25.422,31.7s.494-3.973-6.352-3.973H8.168c-6.835,0-6.352,3.973-6.352,3.973H25.422ZM1.817,40.644s-.484,3.973,6.352,3.973h10.9c6.845,0,6.352-3.973,6.352-3.973H1.817ZM24.4,38.657a2.284,2.284,0,0,0,2.025-2.482A2.281,2.281,0,0,0,24.4,33.691H2.746A2.286,2.286,0,0,0,.72,36.175a2.289,2.289,0,0,0,2.026,2.482H24.4Z" transform="translate(-0.72 -2.825)" fill="#1bbaa2"/>
</svg>
