<svg xmlns="http://www.w3.org/2000/svg" width="40" height="40" viewBox="0 0 40 40">
  <g id="gold-star" transform="translate(-1376.18 -299.5)">
    <circle id="NoPath_-_Copy_7_" data-name="NoPath - Copy (7)" cx="20" cy="20" r="20" transform="translate(1376.18 299.5)" fill="#ebc660"/>
    <path id="Icon_awesome-star" data-name="Icon awesome-star" d="M10.474.673,8,5.681l-5.526.806a1.211,1.211,0,0,0-.669,2.065l4,3.9-.946,5.5a1.21,1.21,0,0,0,1.755,1.275l4.943-2.6,4.943,2.6a1.211,1.211,0,0,0,1.755-1.275l-.946-5.5,4-3.9a1.211,1.211,0,0,0-.669-2.065l-5.526-.806L12.645.673A1.211,1.211,0,0,0,10.474.673Z" transform="translate(1384.62 309.817)" fill="#fff"/>
  </g>
</svg>
