<svg xmlns="http://www.w3.org/2000/svg" width="26.285" height="26.332" viewBox="0 0 26.285 26.332">
  <path id="phone-icon" d="M26.45,20.466v3.512A2.341,2.341,0,0,1,23.9,26.32a23.168,23.168,0,0,1-10.1-3.594A22.828,22.828,0,0,1,6.771,15.7,23.168,23.168,0,0,1,3.177,5.552,2.341,2.341,0,0,1,5.507,3H9.019A2.341,2.341,0,0,1,11.36,5.014,15.031,15.031,0,0,0,12.18,8.3a2.341,2.341,0,0,1-.527,2.47L10.166,12.26a18.731,18.731,0,0,0,7.024,7.024L18.677,17.8a2.341,2.341,0,0,1,2.47-.527,15.032,15.032,0,0,0,3.29.819,2.341,2.341,0,0,1,2.014,2.376Z" transform="translate(-1.667 -1.5)" fill="none" stroke="#7f7f7f" stroke-linecap="round" stroke-linejoin="round" stroke-width="3" opacity="0.5"/>
</svg>
