<svg xmlns="http://www.w3.org/2000/svg" width="73.735" height="72.541" viewBox="0 0 73.735 72.541">
  <g id="surface1" transform="translate(0 0)">
    <path id="Path_1430" data-name="Path 1430" d="M403.455,91.485a1.08,1.08,0,0,0,1.486.354l5.855-3.6a1.08,1.08,0,1,0-1.132-1.84L403.809,90A1.08,1.08,0,0,0,403.455,91.485Zm0,0" transform="translate(-345.215 -73.818)" fill="#ff9254"/>
    <path id="Path_1431" data-name="Path 1431" d="M447.167,167.521l-8.583-.834a1.08,1.08,0,1,0-.209,2.15l8.583.834c.036,0,.071.005.106.005a1.08,1.08,0,0,0,.1-2.155Zm0,0" transform="translate(-374.407 -142.678)" fill="#ff9254"/>
    <path id="Path_1432" data-name="Path 1432" d="M369.881,10.124a1.077,1.077,0,0,0,1.4-.615L374.4,1.472a1.08,1.08,0,0,0-2.013-.783l-3.127,8.037A1.08,1.08,0,0,0,369.881,10.124Zm0,0" transform="translate(-316.023)" fill="#ff9254"/>
    <path id="Path_1433" data-name="Path 1433" d="M46.229,21.894a2.508,2.508,0,0,0-3.447-.816l-1.292.8a2.505,2.505,0,0,0-.817,3.447l.743,1.2L24.432,47.552l-3.587,2.213A1.08,1.08,0,0,0,21.979,51.6L24.8,49.861l5.5,8.921A4.413,4.413,0,0,0,28,59.266l-.038.02c-.1.051-.193.1-.287.163l-3.23,2A5.794,5.794,0,0,0,22.538,63.4l-.8,1.2-.586.882-.015-.005-.026-.012c-.046-.02-.09-.043-.134-.067l-.028-.015a1.62,1.62,0,0,1-.139-.093l-.028-.021c-.04-.032-.08-.065-.118-.1l-.014-.013a1.653,1.653,0,0,1-.115-.126L20.515,65a1.637,1.637,0,0,1-.1-.143l-4.667-7.565a1.57,1.57,0,0,1,.511-2.161l1.4-.862a1.08,1.08,0,0,0-1.134-1.838l-1.4.862a3.732,3.732,0,0,0-1.634,4.183l-1.039.641a2.966,2.966,0,0,0-.965,4.077l2.636,4.273A2.944,2.944,0,0,0,15.96,67.8a2.991,2.991,0,0,0,.689.081,2.94,2.94,0,0,0,1.55-.443l1.041-.642a3.73,3.73,0,0,0,.71.509l-3,4.517-.707.483a1.3,1.3,0,0,0-1.431.165l-1.861,1.566a1.313,1.313,0,0,0-1.448.022c-.021.015-.042.029-.061.045L.965,82.37A2.523,2.523,0,0,0,0,84.362v3.365a2.541,2.541,0,0,0,2.538,2.538H19.676a2.525,2.525,0,0,0,1.978-.948l1.421-1.768a1.31,1.31,0,0,0,.317-1L25.3,84.935a1.3,1.3,0,0,0,.4-.584l4.408.9a1.06,1.06,0,0,0,.2.022c.129,0,.257,0,.385,0a5.743,5.743,0,0,0,3.173-.765l4.44-2.645c.074,0,.149.007.222.007a3.5,3.5,0,0,0,1.833-.519l3.567-2.181a3.523,3.523,0,0,0-.243-6.151A3.56,3.56,0,0,0,41.4,67.919a3.552,3.552,0,0,0-2.5-4.178,3.555,3.555,0,0,0-.4-2.755,3.611,3.611,0,0,0-.472-.61l21.4-4.659.743,1.2a2.507,2.507,0,0,0,3.447.817l1.292-.8a2.505,2.505,0,0,0,.816-3.448ZM17.064,65.6a.8.8,0,0,1-1.1-.262l-2.636-4.272a.8.8,0,0,1,.262-1.1l.916-.565,3.479,5.638Zm2.906,22.366a.374.374,0,0,1-.294.141H2.538a.378.378,0,0,1-.377-.377V84.362a.376.376,0,0,1,.143-.3l9.827-7.757L20.987,86.7Zm2.2-3.21L14.4,75.639l1.15-.968,7.711,9.163Zm10.587-2.089a3.936,3.936,0,0,1-2.31.456L24.91,81.984a1.077,1.077,0,0,0-.391-.008L17.727,73.9l.615-.42h0l.03-.023c.023-.017.046-.035.068-.053l.031-.029c.022-.02.042-.041.062-.063l.024-.026c.024-.029.047-.059.068-.09l.006-.008.005-.007.005-.008,5.712-8.6c.012-.019.024-.038.035-.057a3.533,3.533,0,0,1,1.193-1.227l3.229-2c.06-.037.12-.07.182-.1.028-.014.056-.026.083-.039s.065-.029.1-.042.075-.029.114-.042l.06-.02c.047-.015.1-.029.143-.04h0a2.293,2.293,0,0,1,.527-.064h.011c.052,0,.1,0,.154.006l.049,0c.046,0,.091.009.136.016l.08.015a2.083,2.083,0,0,1,.2.049l.078.022c.034.012.068.025.1.038s.053.02.079.032.066.03.1.046l.073.038c.033.017.065.036.1.056l.065.042c.032.021.064.043.1.066s.037.029.055.044.064.051.094.078a2.07,2.07,0,0,1,.382.459l.079.13L33.1,63.953l1.445,2.358.367.6a.945.945,0,0,1,.086.177,1.008,1.008,0,0,1,.03.585,1.111,1.111,0,0,1-.508.69l-.65.4h0a1.141,1.141,0,0,1-.138.07l-.03.013a1.12,1.12,0,0,1-.142.047l-.018,0a1.131,1.131,0,0,1-.135.024l-.026,0a1.246,1.246,0,0,1-.145,0l-.027,0a1.109,1.109,0,0,1-.145-.019h0a1.058,1.058,0,0,1-.15-.043l-.013,0a1.013,1.013,0,0,1-.28-.161h0a1.042,1.042,0,0,1-.116-.111l-.009-.011a.944.944,0,0,1-.092-.124l-1.077-1.76a2.855,2.855,0,0,0-1.792-1.295,2.951,2.951,0,0,0-2.255.37,1.081,1.081,0,0,0-.5.772c-.012.092-.028.183-.044.272-.012.065-.027.13-.041.194,0,.021-.009.043-.014.065-.019.081-.04.161-.063.24l0,.01a4.576,4.576,0,0,1-.509,1.148,0,0,0,0,0,0,0,5.072,5.072,0,0,1-1.715,1.643,1.08,1.08,0,1,0,1.122,1.846,7.9,7.9,0,0,0,1.4-1.074l4.511,7.114a4.476,4.476,0,0,0,3.753,2.036c.079,0,.158,0,.236-.008.031.056.063.112.1.168a3.562,3.562,0,0,0,.436.573Zm.916-7.941v0c.018.051.038.1.058.15l.007.018c.019.045.039.089.06.134.005.01.009.02.014.03.02.042.042.083.063.124.007.012.012.025.019.037.029.053.059.105.091.157.054.089.113.174.174.257l.067.087c.04.051.081.1.123.148s.059.069.09.1.048.047.073.071a3.559,3.559,0,0,0,.274.247l.03.024a3.507,3.507,0,0,0,.6.382,3.557,3.557,0,0,0-.381,1.176,2.294,2.294,0,0,1-1.783-1.036L28.28,69a6.951,6.951,0,0,0,.528-1.523.806.806,0,0,1,.231.02.714.714,0,0,1,.448.321l1.077,1.76.005.007a3,3,0,0,0,.171.25c.045.059.093.114.142.169.017.019.032.04.049.059l.007.029q.025.112.057.223c.007.021.013.043.019.064.026.083.055.166.087.247,0,.008.007.016.01.024.03.074.063.147.1.219.01.021.02.042.031.062.04.079.083.156.129.233a3.539,3.539,0,0,0,2.17,1.6A3.55,3.55,0,0,0,33.671,74.722Zm.689-12.855.363-.222a1.4,1.4,0,1,1,1.464,2.4l-.36.22-1.068-1.742Zm8.049,12.974a1.367,1.367,0,0,1,.392,2.495l-3.567,2.181a1.356,1.356,0,0,1-.947.179l-.057-.011-.029-.006a1.358,1.358,0,0,1-1.018-1.057.082.082,0,0,0,0-.012,1.376,1.376,0,0,1,.362-1.212l.025-.025.048-.045c.016-.015.033-.029.051-.043l.039-.031c.032-.024.064-.046.1-.068l0,0,.709-.433a3.681,3.681,0,0,0,.367-.194l2.729-1.669A1.36,1.36,0,0,1,42.409,74.842Zm-2.485-4.734a1.4,1.4,0,0,1,1.337,2.465l-.642.393a3.61,3.61,0,0,0-.37.2L37.534,74.82a1.407,1.407,0,0,1-1.465-.276h0c-.03-.028-.059-.057-.087-.088l-.021-.026c-.02-.024-.04-.047-.06-.073s-.051-.072-.075-.11-.045-.079-.065-.119c-.006-.013-.011-.026-.017-.039s-.025-.056-.035-.084-.01-.03-.015-.045-.017-.055-.025-.082-.008-.031-.011-.046-.012-.056-.017-.084l-.007-.044c0-.029-.007-.058-.008-.088,0-.014,0-.028,0-.042,0-.03,0-.061,0-.091,0-.014,0-.027,0-.039,0-.031.005-.061.008-.092,0-.013,0-.026,0-.039s.01-.054.015-.081a1.4,1.4,0,0,1,.45-.767l.028-.027.04-.035c.034-.019.068-.037.1-.057l3.5-2.142Q39.852,70.157,39.924,70.107ZM38.246,65.8a1.4,1.4,0,0,1,.531,2.474c-.036.02-.071.04-.107.061l-2.706,1.654.026-.022c.052-.041.1-.083.152-.127.03-.027.059-.056.088-.084s.088-.086.129-.132c.029-.03.056-.062.083-.094s.077-.092.113-.14.051-.067.075-.1.067-.1.1-.15c.022-.035.044-.07.064-.106.031-.054.059-.11.087-.165.017-.035.036-.07.052-.106.028-.062.053-.127.078-.191.011-.031.025-.061.035-.093.033-.1.063-.2.087-.3s.041-.193.055-.29c0-.031.007-.062.011-.093.008-.066.014-.132.018-.2,0-.036,0-.072,0-.108,0-.062,0-.123,0-.184,0-.037,0-.073-.006-.11,0-.062-.012-.124-.02-.185,0-.034-.008-.069-.014-.1-.012-.07-.026-.138-.043-.207-.006-.025-.01-.05-.016-.075-.025-.093-.053-.184-.086-.275-.007-.017-.015-.035-.022-.053-.024-.061-.047-.122-.074-.182l.248-.152A1.4,1.4,0,0,1,38.246,65.8ZM63.93,54.888a.344.344,0,0,1-.155.214l-1.292.8a.346.346,0,0,1-.475-.112L48.4,33.739a1.08,1.08,0,1,0-1.838,1.134l11.659,18.9-25.1,5.464L26.477,48.458,42.618,28.475l1.3,2.114a1.08,1.08,0,1,0,1.838-1.135l-3.25-5.267a.345.345,0,0,1,.112-.475l1.292-.8a.345.345,0,0,1,.475.113l19.5,31.6A.343.343,0,0,1,63.93,54.888Zm0,0" transform="translate(0 -17.723)" fill="#ff9254"/>
  </g>
</svg>
