<svg xmlns="http://www.w3.org/2000/svg" width="14.681" height="13.908" viewBox="0 0 14.681 13.908">
  <path id="wallet-icon" d="M18.408,16.09v.773a1.55,1.55,0,0,1-1.545,1.545H6.045A1.545,1.545,0,0,1,4.5,16.863V6.045A1.545,1.545,0,0,1,6.045,4.5H16.863a1.55,1.55,0,0,1,1.545,1.545v.773H11.454A1.545,1.545,0,0,0,9.909,8.363v6.181a1.545,1.545,0,0,0,1.545,1.545Zm-6.954-1.545h7.727V8.363H11.454Zm3.091-1.932A1.159,1.159,0,1,1,15.7,11.454,1.157,1.157,0,0,1,14.545,12.613Z" transform="translate(-4.5 -4.5)" fill="#343456" opacity="0.5"/>
</svg>
