<svg xmlns="http://www.w3.org/2000/svg" width="23.413" height="23.414" viewBox="0 0 23.413 23.414">
  <path id="website-icon" d="M14.7,3A11.707,11.707,0,1,0,26.413,14.707,11.7,11.7,0,0,0,14.7,3Zm8.113,7.024H19.354a18.32,18.32,0,0,0-1.616-4.168A9.4,9.4,0,0,1,22.808,10.024Zm-8.1-4.636a16.491,16.491,0,0,1,2.236,4.636H12.471A16.491,16.491,0,0,1,14.707,5.388ZM5.646,17.048a9.157,9.157,0,0,1,0-4.683H9.6a19.334,19.334,0,0,0-.164,2.341A19.334,19.334,0,0,0,9.6,17.048Zm.96,2.341h3.453a18.32,18.32,0,0,0,1.616,4.168A9.35,9.35,0,0,1,6.606,19.389Zm3.453-9.365H6.606a9.35,9.35,0,0,1,5.069-4.168A18.32,18.32,0,0,0,10.059,10.024Zm4.648,14a16.491,16.491,0,0,1-2.236-4.636h4.472A16.491,16.491,0,0,1,14.707,24.025Zm2.739-6.977H11.967a17.224,17.224,0,0,1-.187-2.341,17.074,17.074,0,0,1,.187-2.341h5.479a17.074,17.074,0,0,1,.187,2.341A17.224,17.224,0,0,1,17.446,17.048Zm.293,6.509a18.32,18.32,0,0,0,1.616-4.168h3.453a9.4,9.4,0,0,1-5.069,4.168Zm2.072-6.509a19.334,19.334,0,0,0,.164-2.341,19.334,19.334,0,0,0-.164-2.341h3.957a9.157,9.157,0,0,1,0,4.683Z" transform="translate(-3 -3)" fill="#7f7f7f" opacity="0.5"/>
</svg>
